<svg id="Layer_1" data-name="Layer 1" xmlns="http://www.w3.org/2000/svg" viewBox="0 0 1773 2009.93"><defs><style>.cls-1{fill:#e44d26;}.cls-2{fill:#f16529;}.cls-3{fill:#ebebeb;}.cls-4{fill:#fff;}</style></defs><path class="cls-1" d="M1769.77,0l-161,1803.05L885.35,2003.61,163.86,1803.32,3.08,0Z"/><path class="cls-2" d="M886.43,1850.3,1471,1688.23,1608.57,147.44H886.43Z"/><path class="cls-3" d="M573.55,589.79H886.43V368.62H331.84L337.13,428l54.36,609.48H886.43V816.27H593.76ZM623.39,1148h-222l31,347.27,453.06,125.77,1-.28V1390.68l-1,.25-246.32-66.51L623.39,1148Z"/><path class="cls-4" d="M885.66,1037.44H1158l-25.68,286.85-246.67,66.58V1621l453.41-125.66,3.33-37.36,52-582.28,5.39-59.39H885.66v221.17Zm0-448.19v.54H1419.9l4.43-49.71L1434.41,428l5.29-59.34h-554V589.26Z"/></svg>