<svg id="Layer_1" data-name="Layer 1" xmlns="http://www.w3.org/2000/svg" viewBox="0 0 2500 2389"><path d="M0,277.51Q0,156.85,84.46,78.43T304.05,0Q436.79,0,518.82,77.22q84.46,79.64,84.46,207.53,0,115.83-82,193.05-84.47,79.63-222,79.63h-2.42q-132.72,0-214.76-79.63T0,277.51ZM31.37,2389V777H567.08V2389Zm832.53,0h535.71V1488.9q0-84.47,19.31-130.31a349.88,349.88,0,0,1,102.56-138.75q68.77-56.71,172.54-56.71,270.27,0,270.27,364.38V2389H2500V1464.77q0-357.15-168.92-541.75t-446.43-184.6q-311.3,0-485,267.86v4.82h-2.41l2.41-4.82V777H863.9q4.83,77.22,4.83,480.21T863.9,2389Z"/></svg>