<svg id="Layer_1" data-name="Layer 1" xmlns="http://www.w3.org/2000/svg" viewBox="0 0 2543.54 1900.44"><path d="M2447.09,0H96.45A96.56,96.56,0,0,0,0,96.45V1804a96.56,96.56,0,0,0,96.45,96.45H2447.09a96.56,96.56,0,0,0,96.45-96.45V96.45A96.56,96.56,0,0,0,2447.09,0ZM1382.32,1099.76l-.62.64a26.85,26.85,0,0,1-19.4,8.35H1181.24a26.81,26.81,0,0,1-19.4-8.35l-.31-.32-950.61-975h2121.7ZM851.08,960.89l-726,726V216.32Zm87.35,89.59,132.94,136.34a152.47,152.47,0,0,0,109.87,47H1362.3a152.5,152.5,0,0,0,109.87-47l132.94-136.35L2330,1775.32H213.58Zm754-89.59,726-744.57V1686.86Z"/></svg>