<?xml version="1.0" encoding="utf-8"?>
<!-- Generator: Adobe Illustrator 25.0.1, SVG Export Plug-In . SVG Version: 6.00 Build 0)  -->
<svg version="1.1" id="Layer_1" xmlns="http://www.w3.org/2000/svg" xmlns:xlink="http://www.w3.org/1999/xlink" x="0px" y="0px"
	 viewBox="0 0 1715.8 1715.8" style="enable-background:new 0 0 1715.8 1715.8;" xml:space="preserve">
<style type="text/css">
	.st0{fill:#CF649A;}
	.st1{fill:#FFFFFF;}
</style>
<rect class="st0" width="1715.8" height="1715.8"/>
<path class="st1" d="M1367.9,936.5c-49.4,0.3-92.2,12.1-128.1,29.8c-13.3-26.2-26.5-49.1-28.7-66.3c-2.5-19.9-5.5-32-2.5-55.8
	c3-23.7,16.8-57.4,16.8-60.2c-0.3-2.5-3-14.6-31.5-14.9c-28.4-0.3-53,5.5-55.8,13s-8.3,24.6-11.9,42.2c-5,26-56.9,117.9-86.4,166.2
	c-9.7-18.8-17.9-35.3-19.6-48.6c-2.5-19.9-5.5-32-2.5-55.8c3-23.7,16.8-57.4,16.8-60.2c-0.3-2.5-3-14.6-31.5-14.9
	c-28.4-0.3-53,5.5-55.8,13c-2.8,7.5-5.8,25.1-11.9,42.2c-5.8,17.1-74.8,170.6-92.8,210.6c-9.1,20.4-17.1,36.7-22.9,47.8
	c-5.8,11-0.3,0.8-0.8,1.9c-5,9.4-7.7,14.6-7.7,14.6v0.3c-3.9,6.9-8,13.5-9.9,13.5c-1.4,0-4.1-18.5,0.6-43.9
	c10.2-53.3,35.1-136.4,34.8-139.4c0-1.4,4.7-16-16-23.5c-20.2-7.5-27.3,5-29,5c-1.7,0-3,4.4-3,4.4s22.4-93.6-42.8-93.6
	c-40.9,0-97.2,44.4-125.1,85c-17.7,9.7-55.2,30.1-95,51.9c-15.2,8.3-30.9,17.1-45.8,25.1l-3-3.3c-79-84.2-225-143.8-218.9-257
	c2.2-41.1,16.6-149.6,280.5-281c216.2-107.7,389.3-78.1,419.4-12.4c42.8,93.9-92.5,268.3-317.2,293.5
	c-85.6,9.7-130.6-23.5-141.9-35.9c-11.9-13-13.5-13.5-17.9-11c-7.2,3.9-2.8,15.5,0,22.4c6.6,17.4,34.2,48.3,81.2,63.8
	c41.1,13.5,141.6,21,263.1-26c136.1-52.7,242.4-199.1,211.2-321.4c-31.7-124.5-238.3-165.4-433.4-96.1
	c-116.2,41.4-242.1,106-332.7,190.8C162.6,653,145.4,740.8,152.6,777.2c25.1,130,204.3,214.8,276.1,277.5c-3.6,1.9-6.9,3.9-9.9,5.5
	c-35.9,17.7-172.5,89.2-206.8,164.8c-38.7,85.6,6.1,147.2,35.9,155.4c92.2,25.7,186.6-20.4,237.7-96.4
	c50.8-75.9,44.7-174.5,21.3-219.5l-0.8-1.7l28.2-16.6c18.2-10.8,36.2-20.7,51.9-29.3c-8.8,24-15.2,52.5-18.5,93.9
	c-3.9,48.6,16,111.5,42.2,136.4c11.6,10.8,25.4,11,34,11c30.4,0,44.2-25.1,59.4-55.2c18.8-36.7,35.3-79.2,35.3-79.2
	s-20.7,115.1,35.9,115.1c20.7,0,41.4-26.8,50.8-40.6v0.3c0,0,0.6-0.8,1.7-2.8c1.2-1.7,2.3-3.5,3.3-5.2v-0.6
	c8.3-14.4,26.8-47.2,54.4-101.6c35.6-70.1,69.8-157.9,69.8-157.9s3.3,21.5,13.5,56.9c6.1,21,19.3,43.9,29.5,66.3
	c-8.3,11.6-13.3,18.2-13.3,18.2l0.3,0.3c-6.6,8.8-14.1,18.2-21.8,27.6c-28.2,33.7-61.8,72.1-66.3,83.1c-5.2,13-4.1,22.6,6.1,30.4
	c7.5,5.5,20.7,6.6,34.8,5.5c25.4-1.7,43.1-8,51.9-11.9c13.8-5,29.5-12.4,44.7-23.5c27.6-20.4,44.4-49.4,42.8-88.1
	c-0.8-21.3-7.7-42.2-16.3-62.1c2.5-3.6,5-7.2,7.5-11c43.6-63.8,77.3-133.9,77.3-133.9s3.3,21.5,13.5,56.9
	c5.2,17.9,15.7,37.5,25.1,56.9c-40.9,33.4-66.5,72.1-75.4,97.5c-16.3,46.9-3.6,68.2,20.4,73.2c10.8,2.2,26.2-2.8,37.8-7.7
	c14.4-4.7,31.7-12.7,47.8-24.6c27.6-20.4,54.1-48.9,52.7-87.2c-0.8-17.7-5.5-35.1-11.9-51.6c34.8-14.4,79.8-22.6,136.9-15.7
	c122.9,14.4,147.1,91.1,142.5,123.1c-4.7,32-30.4,49.7-38.9,55.2c-8.6,5.2-11.3,7.2-10.5,11c1.1,5.8,5,5.5,12.4,4.4
	c10.2-1.7,64.6-26.2,66.8-85.3C1567.8,1018.5,1495.7,935.7,1367.9,936.5L1367.9,936.5z M420.4,1255.9c-40.6,44.4-97.7,61.3-122,46.9
	c-26.2-15.2-16-80.6,34-127.8c30.4-28.7,69.8-55.2,95.8-71.5c5.8-3.6,14.6-8.8,25.1-15.2c1.7-1.1,2.8-1.7,2.8-1.7
	c1.9-1.1,4.1-2.5,6.3-3.9C480.9,1150.2,463.2,1209.3,420.4,1255.9L420.4,1255.9z M717.2,1054.1c-14.1,34.5-43.9,123.1-61.8,118.2
	c-15.5-4.1-24.8-71.2-3-137.5c11-33.4,34.5-73.2,48.3-88.6c22.4-24.8,46.7-33.1,52.7-22.9C760.5,936.5,726,1032.6,717.2,1054.1z
	 M962.1,1171.2c-6.1,3-11.6,5.2-14.1,3.6c-1.9-1.1,2.5-5.2,2.5-5.2s30.6-32.9,42.8-48c6.9-8.8,15.2-19,24-30.6v3.3
	C1017.3,1133.9,979.2,1160.4,962.1,1171.2L962.1,1171.2z M1150.9,1128.1c-4.4-3.3-3.9-13.5,11-45.6c5.8-12.7,19-34,42-54.1
	c2.8,8.3,4.4,16.3,4.1,23.7C1207.8,1101.9,1172.4,1120.4,1150.9,1128.1z"/>
</svg>
